<?xml version="1.0" encoding="UTF-8"?>
<!-- Generator: Adobe Illustrator 26.0.1, SVG Export Plug-In . SVG Version: 6.00 Build 0)  -->
<svg xmlns="http://www.w3.org/2000/svg" xmlns:xlink="http://www.w3.org/1999/xlink" version="1.1" id="Capa_1" x="0px" y="0px" viewBox="0 0 512 512" style="enable-background:new 0 0 512 512;" xml:space="preserve" width="512" height="512">
<g>
	<path d="M256,0C114.62,0,0,114.62,0,256s114.62,256,256,256s256-114.62,256-256S397.38,0,256,0z M286.78,450.61V312.95h45.9   l8.74-56.95h-54.64v-36.95c0-15.58,7.63-30.77,32.1-30.77h24.85V139.8c0,0-22.55-3.85-44.1-3.85c-45,0-74.41,27.28-74.41,76.65V256   H175.2v56.95h50.02v137.66C131.04,435.83,59,354.33,59,256c0-108.8,88.2-197,197-197s197,88.2,197,197   C453,354.33,380.96,435.83,286.78,450.61z"/>
</g>















</svg>
