<svg id="Layer_1" enable-background="new 0 0 468 468" height="512" viewBox="0 0 468 468" width="512" xmlns="http://www.w3.org/2000/svg"><g><g><g><g><path d="m234.542 438.712h-15.084c-4.418 0-8-3.582-8-8s3.582-8 8-8h15.084c4.418 0 8 3.582 8 8s-3.582 8-8 8z"/></g><g><path d="m105 228.331c-4.418 0-8-3.582-8-8v-192.331c0-15.439 12.561-28 28-28h204c9.795 0 18.712 4.983 23.854 13.331 2.317 3.762 1.146 8.69-2.616 11.007-3.763 2.318-8.69 1.146-11.007-2.616-2.208-3.583-6.032-5.722-10.231-5.722h-204c-6.617 0-12 5.383-12 12v192.331c0 4.418-3.582 8-8 8z"/></g><path d="m349 254c-4.418 0-8 3.582-8 8v131h-148.272c-4.418 0-8 3.582-8 8s3.582 8 8 8h148.272v31c0 6.617-5.383 12-12 12h-204c-5.59 0-10.519-3.952-11.719-9.397-.953-4.315-5.223-7.046-9.535-6.089-4.314.951-7.041 5.22-6.09 9.535 2.806 12.719 14.305 21.951 27.344 21.951h204c15.439 0 28-12.561 28-28v-178c0-4.418-3.582-8-8-8z"/></g><g><path d="m432 40h-225c-15.439 0-28 12.561-28 28v144c0 15.439 12.561 28 28 28h225c15.439 0 28-12.561 28-28v-144c0-15.439-12.561-28-28-28zm-225 16h225c6.617 0 12 5.383 12 12v21h-249v-21c0-6.617 5.383-12 12-12zm225 168h-225c-6.617 0-12-5.383-12-12v-107h249v107c0 6.617-5.383 12-12 12z"/><g><path d="m406.958 150h-97.958c-4.418 0-8-3.582-8-8s3.582-8 8-8h97.958c4.418 0 8 3.582 8 8s-3.582 8-8 8z"/></g><g><path d="m406.958 194h-97.958c-4.418 0-8-3.582-8-8s3.582-8 8-8h97.958c4.418 0 8 3.582 8 8s-3.582 8-8 8z"/></g></g><g><g><path d="m105 422.331c-46.869 0-85-38.131-85-85s38.131-85 85-85 85 38.131 85 85-38.131 85-85 85zm0-154c-38.047 0-69 30.953-69 69s30.953 69 69 69 69-30.953 69-69-30.953-69-69-69z"/></g><g><path d="m110.278 328.48c-10.722-4.445-13.823-7.048-13.823-11.604 0-3.769 2.712-7.797 10.325-7.797 6.494.453 12.385 2.371 17.672 5.754l5.433-14.374c-5.198-3.285-10.956-5.301-17.275-6.048v-12.562h-14.202v13.456c-11.857 2.93-19.208 11.758-19.208 23.1 0 14.027 11.037 20.296 22.959 24.98 8.81 3.579 12.403 7.124 12.403 12.235 0 5.579-4.814 9.327-11.979 9.327-7.541-.483-14.184-2.881-19.928-7.197l-5.22 14.602c5.723 4.388 12.417 6.86 20.083 7.419v13.042h14.329v-13.845c12.22-3.057 20.098-12.543 20.098-24.24 0-12.191-6.481-20.042-21.667-26.248z"/></g></g></g><g><g><path d="m428 378.039c-4.418 0-8-3.582-8-8v-12.039c0-4.418 3.582-8 8-8s8 3.582 8 8v12.039c0 4.418-3.582 8-8 8z"/></g><g><path d="m428 430c-4.418 0-8-3.582-8-8v-12.039c0-4.418 3.582-8 8-8s8 3.582 8 8v12.039c0 4.418-3.582 8-8 8z"/></g><g><path d="m460 398h-12.038c-4.418 0-8-3.582-8-8s3.582-8 8-8h12.038c4.418 0 8 3.582 8 8s-3.582 8-8 8z"/></g><g><path d="m408.038 398h-12.038c-4.418 0-8-3.582-8-8s3.582-8 8-8h12.038c4.418 0 8 3.582 8 8s-3.582 8-8 8z"/></g></g><g><g><path d="m40 92.039c-4.418 0-8-3.582-8-8v-12.039c0-4.418 3.582-8 8-8s8 3.582 8 8v12.039c0 4.418-3.582 8-8 8z"/></g><g><path d="m40 144c-4.418 0-8-3.582-8-8v-12.039c0-4.418 3.582-8 8-8s8 3.582 8 8v12.039c0 4.418-3.582 8-8 8z"/></g><g><path d="m72 112h-12.038c-4.418 0-8-3.582-8-8s3.582-8 8-8h12.038c4.418 0 8 3.582 8 8s-3.582 8-8 8z"/></g><g><path d="m20.038 112h-12.038c-4.418 0-8-3.582-8-8s3.582-8 8-8h12.038c4.418 0 8 3.582 8 8s-3.582 8-8 8z"/></g></g></g></svg>