<svg id="Layer_1" enable-background="new 0 0 2048 2048" viewBox="0 0 2048 2048" xmlns="http://www.w3.org/2000/svg"><g><g><g><g><path d="m1716.87 1711h-1385.74c-41.43 0-75.13-33.71-75.13-75.13v-973c0-41.43 33.7-75.13 75.13-75.13h1385.73c41.43 0 75.13 33.7 75.13 75.13v973c.01 41.43-33.69 75.13-75.12 75.13zm-1385.74-1075.26c-14.96 0-27.13 12.17-27.13 27.13v973c0 14.96 12.17 27.13 27.13 27.13h1385.73c14.96 0 27.13-12.17 27.13-27.13v-973c0-14.96-12.17-27.13-27.13-27.13z" fill="rgb(0,0,0)"/></g><g><path d="m1704.21 1173.37h-152.58c-13.25 0-24-10.75-24-24s10.75-24 24-24h152.58c21.94 0 39.79-17.85 39.79-39.79v-410.06c0-21.94-17.85-39.79-39.79-39.79h-1360.42c-21.94 0-39.79 17.85-39.79 39.79v410.06c0 21.94 17.85 39.79 39.79 39.79h152.58c13.25 0 24 10.75 24 24s-10.75 24-24 24h-152.58c-48.41 0-87.79-39.38-87.79-87.79v-410.06c0-48.41 39.38-87.79 87.79-87.79h1360.43c48.41 0 87.79 39.38 87.79 87.79v410.06c-.01 48.41-39.39 87.79-87.8 87.79z" fill="rgb(0,0,0)"/></g></g><g><g><path d="m1080.93 1580.91c-4.48 0-8.95-1.25-12.85-3.73-6.94-4.4-11.15-12.05-11.15-20.27v-96.85h-65.86v96.85c0 8.22-4.21 15.87-11.15 20.27s-15.65 4.94-23.09 1.44c-26.63-12.56-49.18-32.3-65.21-57.08-16.47-25.47-25.18-55.03-25.18-85.48s8.7-60 25.18-85.47c13.19-20.39 30.79-37.36 51.45-49.74v-302.96c-20.66-12.37-38.26-29.35-51.45-49.74-16.47-25.47-25.18-55.03-25.18-85.48s8.7-60 25.18-85.47c16.03-24.78 38.58-44.52 65.21-57.08 7.43-3.51 16.15-2.97 23.09 1.44 6.94 4.4 11.15 12.05 11.15 20.27v96.85h65.86v-96.85c0-8.22 4.21-15.87 11.15-20.27s15.66-4.94 23.09-1.44c26.63 12.56 49.18 32.3 65.21 57.08 16.47 25.47 25.18 55.03 25.18 85.48s-8.71 60-25.18 85.47c-13.19 20.39-30.79 37.36-51.45 49.74v302.96c20.66 12.37 38.26 29.35 51.45 49.74 16.47 25.47 25.18 55.03 25.18 85.47 0 30.45-8.71 60-25.18 85.47-16.03 24.78-38.58 44.52-65.21 57.08-3.26 1.54-6.75 2.3-10.24 2.3zm-113.86-168.85h113.86c13.25 0 24 10.75 24 24v73.76c18.04-19.87 28.63-46.11 28.63-73.76 0-42.21-24.67-81.13-62.87-99.14-8.4-3.96-13.76-12.42-13.76-21.71v-331.68c0-9.29 5.36-17.74 13.76-21.71 38.19-18.02 62.87-56.93 62.87-99.14 0-27.65-10.59-53.89-28.63-73.76v73.76c0 13.25-10.75 24-24 24h-113.86c-13.25 0-24-10.75-24-24v-73.76c-18.04 19.87-28.63 46.11-28.63 73.76 0 42.21 24.67 81.13 62.87 99.14 8.4 3.96 13.76 12.42 13.76 21.71v331.68c0 9.29-5.36 17.74-13.76 21.71-38.19 18.02-62.87 56.93-62.87 99.14 0 27.65 10.59 53.89 28.63 73.76v-73.76c0-13.26 10.75-24 24-24z" fill="rgb(0,0,0)"/></g></g><g><path d="m967.07 1173.37h-270.33c-13.25 0-24-10.75-24-24s10.75-24 24-24h270.33c13.25 0 24 10.75 24 24s-10.75 24-24 24z" fill="rgb(0,0,0)"/></g><g><path d="m1351.26 1173.37h-270.33c-13.25 0-24-10.75-24-24s10.75-24 24-24h270.33c13.25 0 24 10.75 24 24s-10.75 24-24 24z" fill="rgb(0,0,0)"/></g><g><path d="m1317.11 635.74c-13.25 0-24-10.75-24-24v-128.68c0-54.07-43.99-98.06-98.07-98.06h-342.08c-54.08 0-98.07 43.99-98.07 98.06v128.68c0 13.25-10.75 24-24 24s-24-10.75-24-24v-128.68c0-80.54 65.53-146.06 146.07-146.06h342.08c80.54 0 146.07 65.52 146.07 146.06v128.68c0 13.25-10.74 24-24 24z" fill="rgb(0,0,0)"/></g><g><path d="m1227.11 635.74h-406.22c-13.25 0-24-10.75-24-24v-128.68c0-30.91 25.15-56.07 56.07-56.07h342.09c30.92 0 56.07 25.15 56.07 56.07v128.68c-.01 13.25-10.76 24-24.01 24zm-382.22-48h358.22v-104.68c0-4.45-3.62-8.07-8.07-8.07h-342.08c-4.45 0-8.07 3.62-8.07 8.07z" fill="rgb(0,0,0)"/></g><g><path d="m672.69 1273.56h-152.28c-26.49 0-48.05-21.55-48.05-48.05v-152.27c0-26.49 21.55-48.05 48.05-48.05h152.27c26.49 0 48.05 21.55 48.05 48.05v152.27c.01 26.49-21.55 48.05-48.04 48.05zm-152.28-200.38-.05 152.32 152.32.05h.04l.01-152.32z" fill="rgb(0,0,0)"/></g><g><path d="m1527.59 1273.56h-152.28c-26.49 0-48.05-21.55-48.05-48.05v-152.27c0-26.49 21.55-48.05 48.05-48.05h152.28c26.49 0 48.05 21.55 48.05 48.05v152.27c0 26.49-21.56 48.05-48.05 48.05zm-152.28-200.38-.05 152.32 152.32.05h.04l.01-152.32z" fill="rgb(0,0,0)"/></g><g><g><path d="m645.54 1073.18c-13.25 0-24-10.75-24-24v-413.44h-49.98v413.44c0 13.25-10.75 24-24 24s-24-10.75-24-24v-437.44c0-13.25 10.75-24 24-24h97.98c13.25 0 24 10.75 24 24v437.44c0 13.25-10.75 24-24 24z" fill="rgb(0,0,0)"/></g><g><path d="m596.55 1455.6c-8.23 0-15.89-4.22-20.29-11.18l-48.99-77.56c-2.42-3.84-3.71-8.28-3.71-12.82v-104.48c0-13.25 10.75-24 24-24s24 10.75 24 24v97.53l24.99 39.56 24.99-39.56v-97.53c0-13.25 10.75-24 24-24s24 10.75 24 24v104.48c0 4.54-1.29 8.98-3.71 12.82l-48.99 77.56c-4.4 6.96-12.06 11.18-20.29 11.18z" fill="rgb(0,0,0)"/></g><g><path d="m1500.44 1073.18c-13.25 0-24-10.75-24-24v-413.44h-49.98v413.44c0 13.25-10.75 24-24 24s-24-10.75-24-24v-437.44c0-13.25 10.75-24 24-24h97.98c13.25 0 24 10.75 24 24v437.44c0 13.25-10.74 24-24 24z" fill="rgb(0,0,0)"/></g><g><path d="m1451.45 1455.6c-8.23 0-15.89-4.22-20.29-11.18l-48.99-77.56c-2.42-3.84-3.71-8.28-3.71-12.82v-104.48c0-13.25 10.75-24 24-24s24 10.75 24 24v97.53l24.99 39.56 24.99-39.56v-97.53c0-13.25 10.75-24 24-24s24 10.75 24 24v104.48c0 4.54-1.29 8.98-3.71 12.82l-48.99 77.56c-4.4 6.96-12.06 11.18-20.29 11.18z" fill="rgb(0,0,0)"/></g></g></g></g></svg>